<svg width="90" height="90" viewBox="0 0 90 90" fill="none" xmlns="http://www.w3.org/2000/svg">
<path d="M76.8844 13.0952C72.7381 8.92791 67.7993 5.62376 62.3561 3.37549C56.913 1.12722 51.0744 -0.0201605 45.1809 0.000268063C20.4874 0.000268063 0.36181 20.0252 0.36181 44.5951C0.36181 52.4701 2.44221 60.1201 6.33166 66.8701L0 90L23.7437 83.79C30.3015 87.345 37.6734 89.235 45.1809 89.235C69.8744 89.235 90 69.2101 90 44.6401C90 32.7152 85.3417 21.5102 76.8844 13.0952ZM45.1809 81.675C38.4874 81.675 31.9296 79.875 26.1859 76.5L24.8291 75.69L10.7186 79.38L14.4724 65.7001L13.5678 64.3051C9.8491 58.3965 7.8745 51.5667 7.86935 44.5951C7.86935 24.1652 24.603 7.51525 45.1357 7.51525C55.0854 7.51525 64.4472 11.3852 71.4573 18.4052C74.9283 21.843 77.679 25.9322 79.55 30.4356C81.421 34.939 82.375 39.7671 82.3568 44.6401C82.4472 65.0701 65.7136 81.675 45.1809 81.675ZM65.6231 53.9551C64.4925 53.4151 58.9749 50.7151 57.9799 50.3101C56.9397 49.9501 56.2161 49.7701 55.4472 50.8501C54.6784 51.9751 52.5528 54.4951 51.9196 55.2151C51.2864 55.9801 50.608 56.0701 49.4774 55.4851C48.3467 54.9451 44.7286 53.7301 40.4774 49.9501C37.1306 46.9801 34.9146 43.3351 34.2362 42.2101C33.603 41.0851 34.1457 40.5001 34.7337 39.9151C35.2311 39.4201 35.8643 38.6101 36.407 37.9802C36.9497 37.3502 37.1759 36.8552 37.5377 36.1352C37.8995 35.3702 37.7186 34.7402 37.4472 34.2002C37.1759 33.6602 34.9146 28.1702 34.01 25.9202C33.1055 23.7602 32.1558 24.0302 31.4774 23.9852H29.3065C28.5377 23.9852 27.3618 24.2552 26.3216 25.3802C25.3266 26.5052 22.4322 29.2052 22.4322 34.6952C22.4322 40.1851 26.4573 45.4951 27 46.2151C27.5427 46.9801 34.9146 58.2301 46.1306 63.0451C48.799 64.2151 50.8794 64.8901 52.5075 65.3851C55.1759 66.2401 57.6181 66.1051 59.5628 65.8351C61.7337 65.5201 66.211 63.1351 67.1156 60.5251C68.0653 57.9151 68.0653 55.7101 67.7487 55.2151C67.4322 54.7201 66.7538 54.4951 65.6231 53.9551Z" fill="#262626"/>
</svg>
