<svg width="57" height="45" viewBox="0 0 57 45" fill="none" xmlns="http://www.w3.org/2000/svg">
<g clip-path="url(#clip0_5_2)">
<path d="M55.575 30.9375H54.15V21.4365C54.15 20.3203 53.6958 19.248 52.8942 18.457L43.9969 9.67676C43.1953 8.88574 42.1087 8.4375 40.9777 8.4375H37.05V4.21875C37.05 1.88965 35.1352 0 32.775 0H9.975C7.61484 0 5.7 1.88965 5.7 4.21875V8.4375H0.7125C0.320625 8.4375 0 8.75391 0 9.14062V10.5469C0 10.9336 0.320625 11.25 0.7125 11.25H24.9375C25.3294 11.25 25.65 11.5664 25.65 11.9531V13.3594C25.65 13.7461 25.3294 14.0625 24.9375 14.0625H3.5625C3.17062 14.0625 2.85 14.3789 2.85 14.7656V16.1719C2.85 16.5586 3.17062 16.875 3.5625 16.875H22.0875C22.4794 16.875 22.8 17.1914 22.8 17.5781V18.9844C22.8 19.3711 22.4794 19.6875 22.0875 19.6875H0.7125C0.320625 19.6875 0 20.0039 0 20.3906V21.7969C0 22.1836 0.320625 22.5 0.7125 22.5H19.2375C19.6294 22.5 19.95 22.8164 19.95 23.2031V24.6094C19.95 24.9961 19.6294 25.3125 19.2375 25.3125H5.7V36.5625C5.7 41.2207 9.52969 45 14.25 45C18.9703 45 22.8 41.2207 22.8 36.5625H34.2C34.2 41.2207 38.0297 45 42.75 45C47.4703 45 51.3 41.2207 51.3 36.5625H55.575C56.3587 36.5625 57 35.9297 57 35.1562V32.3438C57 31.5703 56.3587 30.9375 55.575 30.9375ZM14.25 40.7812C11.8898 40.7812 9.975 38.8916 9.975 36.5625C9.975 34.2334 11.8898 32.3438 14.25 32.3438C16.6102 32.3438 18.525 34.2334 18.525 36.5625C18.525 38.8916 16.6102 40.7812 14.25 40.7812ZM42.75 40.7812C40.3898 40.7812 38.475 38.8916 38.475 36.5625C38.475 34.2334 40.3898 32.3438 42.75 32.3438C45.1102 32.3438 47.025 34.2334 47.025 36.5625C47.025 38.8916 45.1102 40.7812 42.75 40.7812ZM49.875 22.5H37.05V12.6562H40.9777L49.875 21.4365V22.5Z" fill="black"/>
</g>
<defs>
<clipPath id="clip0_5_2">
<rect width="57" height="45" fill="white"/>
</clipPath>
</defs>
</svg>
